<svg width="17" height="17" viewBox="0 0 17 17" fill="none" xmlns="http://www.w3.org/2000/svg">
<path d="M12.25 8.49993C12.25 9.49449 11.8549 10.4483 11.1517 11.1516C10.4484 11.8548 9.49456 12.2499 8.5 12.2499C7.50544 12.2499 6.55161 11.8548 5.84835 11.1516C5.14509 10.4483 4.75 9.49449 4.75 8.49993C4.75 7.50537 5.14509 6.55155 5.84835 5.84829C6.55161 5.14503 7.50544 4.74994 8.5 4.74994C9.49456 4.74994 10.4484 5.14503 11.1517 5.84829C11.8549 6.55155 12.25 7.50537 12.25 8.49993ZM12.25 8.49993C12.25 9.88077 13.0892 10.9999 14.125 10.9999C15.1608 10.9999 16 9.88077 16 8.49993C16 6.76477 15.3983 5.0833 14.2975 3.74201C13.1968 2.40072 11.6649 1.48261 9.96312 1.14411C8.26129 0.805611 6.49475 1.06767 4.96448 1.88563C3.4342 2.70359 2.23489 4.02684 1.57088 5.62993C0.906878 7.23301 0.819262 9.01674 1.32296 10.6772C1.82667 12.3376 2.89052 13.772 4.33327 14.736C5.77601 15.7 7.50837 16.134 9.23518 15.9639C10.962 15.7938 12.5764 15.0302 13.8033 13.8033M12.25 8.49993V5.37494" stroke="#9DA5B0" stroke-linecap="round" stroke-linejoin="round"/>
</svg>
