<svg width="22" height="24" viewBox="0 0 22 24" fill="none" xmlns="http://www.w3.org/2000/svg">
<path d="M6 7.76923V6.07692C6 4.73044 6.52678 3.4391 7.46447 2.487C8.40215 1.53489 9.67392 1 11 1C12.3261 1 13.5979 1.53489 14.5355 2.487C15.4732 3.4391 16 4.73044 16 6.07692V7.76923M1.83333 7.76923C1.61232 7.76923 1.40036 7.85838 1.24408 8.01706C1.0878 8.17575 1 8.39097 1 8.61538V20.0385C1 21.6377 2.34167 23 3.91667 23H18.0833C19.6583 23 21 21.7038 21 20.1046V8.61538C21 8.39097 20.9122 8.17575 20.7559 8.01706C20.5996 7.85838 20.3877 7.76923 20.1667 7.76923H1.83333Z" stroke="#6E727E" stroke-width="1.5" stroke-linecap="round" stroke-linejoin="round"/>
</svg>
