<svg width="18" height="19" viewBox="0 0 18 19" fill="none" xmlns="http://www.w3.org/2000/svg">
<path d="M12.3804 8.19231V4.26923C12.3804 3.40218 12.0243 2.57064 11.3904 1.95754C10.7565 1.34444 9.89683 1 9.0004 1C8.10397 1 7.24425 1.34444 6.61038 1.95754C5.97651 2.57064 5.62041 3.40218 5.62041 4.26923V8.19231M15.8559 6.45482L16.9943 16.9164C17.0574 17.4961 16.5887 18 15.9857 18H2.01508C1.87286 18.0001 1.7322 17.9714 1.60223 17.9155C1.47226 17.8596 1.35589 17.7779 1.26069 17.6758C1.16549 17.5736 1.09358 17.4531 1.04963 17.3223C1.00568 17.1915 0.990676 17.0532 1.00559 16.9164L2.14488 6.45482C2.17116 6.21382 2.28875 5.99077 2.47499 5.82866C2.66123 5.66655 2.90292 5.57688 3.15346 5.57692H14.8473C15.3665 5.57692 15.8018 5.95615 15.8559 6.45482ZM5.95841 8.19231C5.95841 8.27901 5.9228 8.36217 5.85941 8.42348C5.79602 8.48479 5.71005 8.51923 5.62041 8.51923C5.53076 8.51923 5.44479 8.48479 5.38141 8.42348C5.31802 8.36217 5.28241 8.27901 5.28241 8.19231C5.28241 8.1056 5.31802 8.02245 5.38141 7.96114C5.44479 7.89983 5.53076 7.86538 5.62041 7.86538C5.71005 7.86538 5.79602 7.89983 5.85941 7.96114C5.9228 8.02245 5.95841 8.1056 5.95841 8.19231ZM12.7184 8.19231C12.7184 8.27901 12.6828 8.36217 12.6194 8.42348C12.556 8.48479 12.47 8.51923 12.3804 8.51923C12.2907 8.51923 12.2048 8.48479 12.1414 8.42348C12.078 8.36217 12.0424 8.27901 12.0424 8.19231C12.0424 8.1056 12.078 8.02245 12.1414 7.96114C12.2048 7.89983 12.2907 7.86538 12.3804 7.86538C12.47 7.86538 12.556 7.89983 12.6194 7.96114C12.6828 8.02245 12.7184 8.1056 12.7184 8.19231Z" stroke="#0F172A" stroke-width="1.5" stroke-linecap="round" stroke-linejoin="round"/>
</svg>
