<svg width="20" height="17" viewBox="0 0 20 17" fill="none" xmlns="http://www.w3.org/2000/svg">
<path d="M1 14.0397C5.92518 14.0358 10.8289 14.6823 15.5818 15.9623C16.2529 16.1435 16.9231 15.6493 16.9231 14.9594V14.0397M2.38462 1V1.6863C2.38462 1.86832 2.31168 2.04288 2.18184 2.17159C2.05201 2.3003 1.87592 2.3726 1.69231 2.3726H1M1 2.3726V2.02945C1 1.46119 1.46523 1 2.03846 1H17.6154M1 2.3726V10.6082M17.6154 1V1.6863C17.6154 2.06514 17.9255 2.3726 18.3077 2.3726H19M17.6154 1H17.9615C18.5348 1 19 1.46119 19 2.02945V10.9514C19 11.5196 18.5348 11.9808 17.9615 11.9808H17.6154M1 10.6082V10.9514C1 11.2244 1.10941 11.4862 1.30416 11.6793C1.49891 11.8724 1.76304 11.9808 2.03846 11.9808H2.38462M1 10.6082H1.69231C1.87592 10.6082 2.05201 10.6805 2.18184 10.8092C2.31168 10.9379 2.38462 11.1125 2.38462 11.2945V11.9808M17.6154 11.9808V11.2945C17.6154 11.1125 17.6883 10.9379 17.8182 10.8092C17.948 10.6805 18.1241 10.6082 18.3077 10.6082H19M17.6154 11.9808H2.38462M12.7692 6.49041C12.7692 7.21849 12.4775 7.91674 11.9581 8.43157C11.4388 8.9464 10.7344 9.23562 10 9.23562C9.26555 9.23562 8.56119 8.9464 8.04186 8.43157C7.52253 7.91674 7.23077 7.21849 7.23077 6.49041C7.23077 5.76234 7.52253 5.06409 8.04186 4.54926C8.56119 4.03443 9.26555 3.74521 10 3.74521C10.7344 3.74521 11.4388 4.03443 11.9581 4.54926C12.4775 5.06409 12.7692 5.76234 12.7692 6.49041ZM15.5385 6.49041H15.5458V6.49774H15.5385V6.49041ZM4.46154 6.49041H4.46892V6.49774H4.46154V6.49041Z" stroke="#0F172A" stroke-width="1.5" stroke-linecap="round" stroke-linejoin="round"/>
</svg>
