<svg width="20" height="16" viewBox="0 0 20 16" fill="none" xmlns="http://www.w3.org/2000/svg">
<path d="M19 3.1V12.9C19 13.457 18.7812 13.9911 18.3917 14.3849C18.0022 14.7788 17.4739 15 16.9231 15H3.07692C2.52609 15 1.99782 14.7788 1.60832 14.3849C1.21882 13.9911 1 13.457 1 12.9V3.1M19 3.1C19 2.54305 18.7812 2.0089 18.3917 1.61508C18.0022 1.22125 17.4739 1 16.9231 1H3.07692C2.52609 1 1.99782 1.22125 1.60832 1.61508C1.21882 2.0089 1 2.54305 1 3.1M19 3.1V3.3268C19 3.68534 18.9093 4.03791 18.7364 4.35094C18.5635 4.66397 18.3142 4.92703 18.0123 5.11507L11.0892 9.4224C10.7617 9.62637 10.3846 9.73437 10 9.73437C9.61536 9.73437 9.23827 9.62637 8.91077 9.4224L1.98769 5.116C1.68577 4.92797 1.43649 4.66491 1.2636 4.35188C1.09071 4.03885 0.999961 3.68627 1 3.32773V3.1" stroke="#9DA5B0" stroke-linecap="round" stroke-linejoin="round"/>
</svg>
