<svg width="18" height="19" viewBox="0 0 18 19" fill="none" xmlns="http://www.w3.org/2000/svg">
<path d="M4.74402 8.52849C4.52903 8.14794 4.19166 7.84839 3.78488 7.67686C3.3781 7.50533 2.92493 7.47153 2.49651 7.58077C2.06809 7.69002 1.68868 7.93611 1.41782 8.28043C1.14696 8.62475 1 9.0478 1 9.48318C1 9.91855 1.14696 10.3416 1.41782 10.6859C1.68868 11.0302 2.06809 11.2763 2.49651 11.3856C2.92493 11.4948 3.3781 11.461 3.78488 11.2895C4.19166 11.118 4.52903 10.8184 4.74402 10.4379M4.74402 8.52849C4.90385 8.81149 4.9953 9.13642 4.9953 9.48318C4.9953 9.82994 4.90385 10.1557 4.74402 10.4379M4.74402 8.52849L13.2377 3.88694M4.74402 10.4379L13.2377 15.0794M13.2377 3.88694C13.3623 4.11766 13.5323 4.32163 13.7379 4.48695C13.9435 4.65226 14.1806 4.77559 14.4352 4.84974C14.6898 4.92388 14.9569 4.94734 15.2208 4.91875C15.4848 4.89017 15.7403 4.8101 15.9724 4.68324C16.2045 4.55638 16.4086 4.38527 16.5728 4.17991C16.7369 3.97456 16.8577 3.73908 16.9283 3.48724C16.9988 3.2354 17.0176 2.97225 16.9835 2.71319C16.9494 2.45413 16.8632 2.20434 16.7299 1.97844C16.4671 1.53328 16.0373 1.2073 15.5328 1.07058C15.0283 0.933868 14.4894 0.997327 14.032 1.24732C13.5746 1.49731 13.2351 1.91388 13.0866 2.40748C12.9381 2.90108 12.9923 3.4323 13.2377 3.88694ZM13.2377 15.0794C13.1103 15.3051 13.0293 15.5533 12.9993 15.8097C12.9694 16.0662 12.9911 16.326 13.0632 16.5742C13.1353 16.8224 13.2564 17.0543 13.4196 17.2565C13.5827 17.4587 13.7848 17.6273 14.0142 17.7526C14.2436 17.878 14.4959 17.9577 14.7566 17.9872C15.0173 18.0166 15.2814 17.9953 15.5337 17.9243C15.7861 17.8534 16.0217 17.7343 16.2273 17.5738C16.4328 17.4132 16.6042 17.2145 16.7317 16.9888C16.989 16.533 17.0518 15.9953 16.9062 15.494C16.7606 14.9927 16.4185 14.5688 15.9552 14.3156C15.4919 14.0624 14.9453 14.0006 14.4356 14.1439C13.926 14.2871 13.4951 14.6236 13.2377 15.0794Z" stroke="#0F172A" stroke-width="1.5" stroke-linecap="round" stroke-linejoin="round"/>
</svg>
