<svg width="14" height="13" viewBox="0 0 14 13" fill="none" xmlns="http://www.w3.org/2000/svg">
<path d="M3.68397 12.4024C3.30401 12.6264 2.84124 12.2845 2.94373 11.8555L3.7474 8.49132C3.79122 8.30786 3.72808 8.11536 3.58411 7.9935L0.919597 5.7382C0.57984 5.45062 0.756962 4.89584 1.2005 4.85834L4.73287 4.55968C4.91611 4.54419 5.07606 4.42936 5.14934 4.2607L6.54192 1.05542C6.71614 0.654422 7.28483 0.6544 7.45908 1.05538L8.85158 4.25983C8.92487 4.42847 9.0848 4.54328 9.26802 4.55878L12.7995 4.85741C13.2431 4.89492 13.4202 5.4497 13.0804 5.73728L10.4159 7.99255C10.2719 8.11443 10.2088 8.30698 10.2527 8.49046L11.057 11.8546C11.1595 12.2836 10.6968 12.6256 10.3168 12.4017L7.25437 10.5969C7.09769 10.5045 6.90324 10.5046 6.74658 10.5969L3.68397 12.4024Z" fill="#FF9F29"/>
</svg>
