<svg width="15" height="19" viewBox="0 0 15 19" fill="none" xmlns="http://www.w3.org/2000/svg">
<path d="M10.7504 4.26923C10.7504 5.13628 10.408 5.96782 9.7984 6.58092C9.18883 7.19402 8.36207 7.53846 7.5 7.53846C6.63793 7.53846 5.81117 7.19402 5.2016 6.58092C4.59202 5.96782 4.24957 5.13628 4.24957 4.26923C4.24957 3.40217 4.59202 2.57063 5.2016 1.95753C5.81117 1.34444 6.63793 1 7.5 1C8.36207 1 9.18883 1.34444 9.7984 1.95753C10.408 2.57063 10.7504 3.40217 10.7504 4.26923ZM1 16.5772C1.02785 14.8618 1.72492 13.2262 2.94088 12.023C4.15684 10.8198 5.79425 10.1455 7.5 10.1455C9.20575 10.1455 10.8432 10.8198 12.0591 12.023C13.2751 13.2262 13.9721 14.8618 14 16.5772C11.9608 17.5177 9.74336 18.003 7.5 18C5.18049 18 2.97886 17.4909 1 16.5772Z" stroke="#9DA5B0" stroke-linecap="round" stroke-linejoin="round"/>
</svg>
